HIERARCHY
ROOT Hips
{
	OFFSET -14.64140 90.27770 -84.91600
	CHANNELS 6 Xposition Yposition Zposition Zrotation Xrotation Yrotation
	JOINT Spine
	{
		OFFSET 0.00000 13.20850 -1.60436
		CHANNELS 3 Zrotation Xrotation Yrotation
		JOINT Spine1
		{
			OFFSET 0.00000 8.61716 0.00000
			CHANNELS 3 Zrotation Xrotation Yrotation
			JOINT Spine2
			{
				OFFSET 0.00000 8.61717 0.00000
				CHANNELS 3 Zrotation Xrotation Yrotation
				JOINT Spine3
				{
					OFFSET 0.00000 8.61717 0.00000
					CHANNELS 3 Zrotation Xrotation Yrotation
					JOINT Neck
					{
						OFFSET 0.00000 11.07920 1.10792
						CHANNELS 3 Zrotation Xrotation Yrotation
						JOINT Neck1
						{
							OFFSET 0.00000 7.08032 0.00000
							CHANNELS 3 Zrotation Xrotation Yrotation
							JOINT Head
							{
								OFFSET 0.00000 7.08031 0.00000
								CHANNELS 3 Zrotation Xrotation Yrotation
								End site
								{
									OFFSET 0.00000 0.00000 0.00000
								}
							}
						}
					}
					JOINT RightShoulder
					{
						OFFSET -0.01000 7.91373 5.19711
						CHANNELS 3 Zrotation Xrotation Yrotation
						JOINT RightArm
						{
							OFFSET -18.41580 0.00000 0.00000
							CHANNELS 3 Zrotation Xrotation Yrotation
							JOINT RightForeArm
							{
								OFFSET -29.11090 0.00000 0.00000
								CHANNELS 3 Zrotation Xrotation Yrotation
								JOINT RightHand
								{
									OFFSET -24.65040 0.00000 0.00000
									CHANNELS 3 Zrotation Xrotation Yrotation
									JOINT RightHandThumb1
									{
										OFFSET -5.35114 -0.85590 3.97906
										CHANNELS 3 Zrotation Xrotation Yrotation
										JOINT RightHandThumb2
										{
											OFFSET -4.52789 0.00000 0.00000
											CHANNELS 3 Zrotation Xrotation Yrotation
											JOINT RightHandThumb3
											{
												OFFSET -2.46976 0.00000 0.00000
												CHANNELS 3 Zrotation Xrotation Yrotation
												End site
												{
													OFFSET 0.00000 0.00000 0.00000
												}
											}
										}
									}
									JOINT RightHandIndex1
									{
										OFFSET -14.26970 0.00000 2.88139
										CHANNELS 3 Zrotation Xrotation Yrotation
										JOINT RightHandIndex2
										{
											OFFSET -5.48836 0.00000 0.00000
											CHANNELS 3 Zrotation Xrotation Yrotation
											JOINT RightHandIndex3
											{
												OFFSET -3.01859 0.00000 0.00000
												CHANNELS 3 Zrotation Xrotation Yrotation
												End site
												{
													OFFSET 0.00000 0.00000 0.00000
												}
											}
										}
									}
									JOINT RightHandMiddle1
									{
										OFFSET -14.26970 0.00000 -0.09147
										CHANNELS 3 Zrotation Xrotation Yrotation
										JOINT RightHandMiddle2
										{
											OFFSET -6.17441 0.00000 0.00000
											CHANNELS 3 Zrotation Xrotation Yrotation
											JOINT RightHandMiddle3
											{
												OFFSET -3.56743 0.00000 0.00000
												CHANNELS 3 Zrotation Xrotation Yrotation
												End site
												{
													OFFSET 0.00000 0.00000 0.00000
												}
											}
										}
									}
									JOINT RightHandRing1
									{
										OFFSET -12.69180 0.00000 -3.06433
										CHANNELS 3 Zrotation Xrotation Yrotation
										JOINT RightHandRing2
										{
											OFFSET -5.62556 0.00000 0.00000
											CHANNELS 3 Zrotation Xrotation Yrotation
											JOINT RightHandRing3
											{
												OFFSET -3.56744 0.00000 0.00000
												CHANNELS 3 Zrotation Xrotation Yrotation
												End site
												{
													OFFSET 0.00000 0.00000 0.00000
												}
											}
										}
									}
									JOINT RightHandPinky1
									{
										OFFSET -11.11390 0.00000 -6.03719
										CHANNELS 3 Zrotation Xrotation Yrotation
										JOINT RightHandPinky2
										{
											OFFSET -4.52789 0.00000 0.00000
											CHANNELS 3 Zrotation Xrotation Yrotation
											JOINT RightHandPinky3
											{
												OFFSET -2.46976 0.00000 0.00000
												CHANNELS 3 Zrotation Xrotation Yrotation
												End site
												{
													OFFSET 0.00000 0.00000 0.00000
												}
											}
										}
									}
								}
							}
						}
					}
					JOINT LeftShoulder
					{
						OFFSET 0.01000 7.91373 5.19711
						CHANNELS 3 Zrotation Xrotation Yrotation
						JOINT LeftArm
						{
							OFFSET 18.41580 0.00000 0.00000
							CHANNELS 3 Zrotation Xrotation Yrotation
							JOINT LeftForeArm
							{
								OFFSET 29.11090 0.00000 0.00000
								CHANNELS 3 Zrotation Xrotation Yrotation
								JOINT LeftHand
								{
									OFFSET 24.65040 0.00000 0.00000
									CHANNELS 3 Zrotation Xrotation Yrotation
									JOINT LeftHandThumb1
									{
										OFFSET 5.35114 -0.85590 3.97906
										CHANNELS 3 Zrotation Xrotation Yrotation
										JOINT LeftHandThumb2
										{
											OFFSET 4.52789 0.00000 0.00000
											CHANNELS 3 Zrotation Xrotation Yrotation
											JOINT LeftHandThumb3
											{
												OFFSET 2.46977 0.00000 0.00000
												CHANNELS 3 Zrotation Xrotation Yrotation
												End site
												{
													OFFSET 0.00000 0.00000 0.00000
												}
											}
										}
									}
									JOINT LeftHandIndex1
									{
										OFFSET 14.26970 0.00000 2.88139
										CHANNELS 3 Zrotation Xrotation Yrotation
										JOINT LeftHandIndex2
										{
											OFFSET 5.48836 0.00000 0.00000
											CHANNELS 3 Zrotation Xrotation Yrotation
											JOINT LeftHandIndex3
											{
												OFFSET 3.01859 0.00000 0.00000
												CHANNELS 3 Zrotation Xrotation Yrotation
												End site
												{
													OFFSET 0.00000 0.00000 0.00000
												}
											}
										}
									}
									JOINT LeftHandMiddle1
									{
										OFFSET 14.26970 0.00000 -0.09147
										CHANNELS 3 Zrotation Xrotation Yrotation
										JOINT LeftHandMiddle2
										{
											OFFSET 6.17440 0.00000 0.00000
											CHANNELS 3 Zrotation Xrotation Yrotation
											JOINT LeftHandMiddle3
											{
												OFFSET 3.56744 0.00000 0.00000
												CHANNELS 3 Zrotation Xrotation Yrotation
												End site
												{
													OFFSET 0.00000 0.00000 0.00000
												}
											}
										}
									}
									JOINT LeftHandRing1
									{
										OFFSET 12.69180 0.00000 -3.06433
										CHANNELS 3 Zrotation Xrotation Yrotation
										JOINT LeftHandRing2
										{
											OFFSET 5.62556 0.00000 0.00000
											CHANNELS 3 Zrotation Xrotation Yrotation
											JOINT LeftHandRing3
											{
												OFFSET 3.56744 0.00000 0.00000
												CHANNELS 3 Zrotation Xrotation Yrotation
												End site
												{
													OFFSET 0.00000 0.00000 0.00000
												}
											}
										}
									}
									JOINT LeftHandPinky1
									{
										OFFSET 11.11390 0.00000 -6.03719
										CHANNELS 3 Zrotation Xrotation Yrotation
										JOINT LeftHandPinky2
										{
											OFFSET 4.52789 0.00000 0.00000
											CHANNELS 3 Zrotation Xrotation Yrotation
											JOINT LeftHandPinky3
											{
												OFFSET 2.46976 0.00000 0.00000
												CHANNELS 3 Zrotation Xrotation Yrotation
												End site
												{
													OFFSET 0.00000 0.00000 0.00000
												}
											}
										}
									}
								}
							}
						}
					}
					JOINT pCube4
					{
						OFFSET 0.00000 10.91090 1.10792
						CHANNELS 3 Zrotation Xrotation Yrotation
						End site
						{
							OFFSET 0.00000 0.00000 0.00000
						}
					}
				}
			}
		}
	}
	JOINT RightUpLeg
	{
		OFFSET -9.98441 0.00000 0.00000
		CHANNELS 3 Zrotation Xrotation Yrotation
		JOINT RightLeg
		{
			OFFSET 0.00000 -42.11790 0.00000
			CHANNELS 3 Zrotation Xrotation Yrotation
			JOINT RightFoot
			{
				OFFSET 0.00000 -45.00020 -0.00001
				CHANNELS 3 Zrotation Xrotation Yrotation
				JOINT RightForeFoot
				{
					OFFSET 0.00000 -3.74820 0.00000
					CHANNELS 3 Zrotation Xrotation Yrotation
					JOINT RightToeBase
					{
						OFFSET 0.00000 0.06325 14.43120
						CHANNELS 3 Zrotation Xrotation Yrotation
						End site
						{
							OFFSET 0.00000 0.00000 0.00000
						}
					}
				}
			}
		}
	}
	JOINT LeftUpLeg
	{
		OFFSET 9.98441 0.00000 0.00000
		CHANNELS 3 Zrotation Xrotation Yrotation
		JOINT LeftLeg
		{
			OFFSET 0.00000 -42.11800 0.00000
			CHANNELS 3 Zrotation Xrotation Yrotation
			JOINT LeftFoot
			{
				OFFSET 0.00000 -45.00070 0.00000
				CHANNELS 3 Zrotation Xrotation Yrotation
				JOINT LeftForeFoot
				{
					OFFSET 0.00000 -3.74824 0.00000
					CHANNELS 3 Zrotation Xrotation Yrotation
					JOINT LeftToeBase
					{
						OFFSET 0.00000 0.06325 14.43110
						CHANNELS 3 Zrotation Xrotation Yrotation
						End site
						{
							OFFSET 0.00000 0.00000 0.00000
						}
					}
				}
			}
		}
	}
}
MOTION
Frames: 4
Frame Time: 0.050000
0.022557010657371743 -0.042218862612391495 -0.01919395830292399 0.0001720053311443122 -0.019000946982942024 0.04136066078099287 -2.6144181620792435 0.10355607027664539 -0.8868629245152748 -0.8668498418114893 3.6009624046703768 0.3607210021071216 -1.3646470475182333 -2.4111657652732337 -1.0298358564107037 0.1744163052734489 -0.13463627149108529 -0.8323113868937778 1.1602298097013086 14.856319874115696 -3.012713389009421 0.33169750681370713 0.6570954969446942 -8.171857493138297 1.3601451225332677 -14.249160857327743 -0.6454661896436413 -8.667779921245403 2.8349058950686707 -15.333308269034369 72.52114895494715 -17.673023602710096 21.593112000501765 38.44704362080739 9.180448116847025 97.55257691121669 16.886086320252627 -0.5199701656489872 -2.5257499876876524 4.575197793870679 -0.08803557737549073 -1.6085595687673906 -0.04280127186387649 -0.026359288082102528 -56.206761632428304 -0.031300519930907864 0.03282727861765937 -56.21155259296238 -38.81473278721106 -0.01009632932488327 -0.005985812278187944 0.04695562594830515 0.005719051894112291 0.009517852426506242 0.02492900740302648 0.03293952797975557 -0.02640041995653133 -36.711292065217386 0.004037996953748705 -0.006064982583605696 0.005329184105426282 -0.002638748791666294 -0.02857807812888716 0.006068169302621099 -0.007935177199026814 -0.004777481271966791 -19.787357024622686 0.004619380989828554 -0.008818677491209289 0.0321072639524762 0.012737806945352237 -0.013534181431648914 -0.008463171552766564 -0.03955445402970828 0.03459609671050137 24.058699109789956 -0.0012354419849624602 -0.0044991916206354645 28.84788476670417 -0.006664727104457484 -0.046155750969494244 28.89269617332676 -0.009674166125474587 -0.010409397749990761 7.39112290361437 1.9190470043948145 12.716770551671225 -71.93312928746505 9.21201913338501 -13.46062012947132 -50.59711794858012 13.307878958345354 -105.15630801854574 -5.960069988373508 0.9274392205554273 -3.899981745243104 -0.49693571423264615 0.09230871067978376 -8.117295840805047 0.02254401416749538 0.03087105158717333 44.53355645590394 -0.012330550250677785 0.033718299410148624 44.56971522393394 12.423990192088226 -0.017094670675865932 -0.03914433636337018 -0.017880232676688288 0.010824440409975194 0.03143941866793754 -0.044236618931277234 0.046502824476049205 0.004751696743528821 11.134730220169299 -0.0009649963222245244 -0.03424615176747263 0.013469981132249537 -0.014415282766459354 0.014793228605956776 -0.031135496949857695 -0.009077779226824073 -0.021125731139551983 4.781712948957047 -0.0403282854752115 0.018952641450869948 0.015859644753341406 -0.04038913666614209 -0.02933939309991865 -0.03498293891613044 -0.03029511208678812 0.03670029935193978 -5.6076743174684855 -0.04045164381025655 0.029279668283946486 -6.68460182421794 0.048518952864036125 0.03142683529757653 -6.7407867403733075 -0.043882135828529185 -0.01765382560948244 0.032553941797617614 -0.04656563212183603 0.04642612650381042 8.012042672095523 3.478558699336396 -19.244517019023064 0.02344485985339009 10.402018243869001 0.010255308179282292 -5.625665990021862 -15.615856099794048 3.1552479738625756 -0.007944371580272887 -0.027470036286451973 -0.005366683049933871 0.02498880387754577 4.745076442978307 0.03861945411850158 12.439639326611886 -8.249649486834981 6.871496542346791 0.026015106230525754 46.41131272961057 -0.03579568861027294 -4.3042494485372975 -14.782052260682251 -3.8090156309833856 -0.013806013998882961 -0.017661885861624236 -0.027557476158163927 0.04854449788715161 -10.778734720564337 -0.012928731552401498 
-0.0426545200176827 0.0020629327665278546 -0.01005704672079024 -0.038295061661160375 -0.027183423125667003 -0.0003460761731108435 -2.7131773489963096 0.024463446489152673 -0.8665445674782821 -0.8968243197524636 3.5338623076662046 0.38196415316487 -1.4483707000669799 -2.4859113503838253 -0.8730975456985419 0.05372924365593635 -0.20192774607301928 -0.8558885021648595 1.260378472797859 15.180498485725517 -2.94336590620938 0.3983681417826695 0.7437405688402711 -8.21611371766624 1.4230570682944559 -14.175750611235186 -0.6331644419758751 -9.333100626834687 2.9895748485919387 -15.321016541323255 71.301935845706 -21.089373150650218 25.786261237490965 36.818685984892284 7.8401158102786335 98.54922321333696 16.14106708069412 -0.5249252692268198 -1.6821966091661062 4.503434501023082 -0.08662704142712876 -1.6306541489278568 0.03337202442157115 0.03913957976991622 -56.21012357264999 0.04457423385133578 -0.03560177512021347 -56.2316229309961 -38.74638152017706 -0.024277502516055666 0.01156724082809919 0.022347650630027235 -0.04140885988118704 -0.022273165996537517 -0.03172862066138211 0.043877272243378486 0.016177927512257762 -36.681245825351674 -0.0247787635508531 0.027076503939212595 0.005092766692957541 0.019536868849456546 0.0017280100157234233 0.040488355462344035 0.028108022230787497 -0.047721257469478515 -19.798790113043715 0.026913635251536235 0.0038684199932867494 0.01476353963843261 -0.027710905399560608 -0.027251023781635516 -0.03186175708717442 0.03941496020960483 0.018922962163876796 24.025708216856113 -0.017322798107199357 0.046401902166040246 28.870380452548368 -0.045366668928442974 -0.007042191930041881 28.854215448228036 0.036391857665275064 0.041164148877401496 7.502210980312353 1.8479340228172603 12.731612648837814 -70.883874527928 8.867386609447626 -14.52734498005075 -44.69219807779216 11.22090230497481 -103.75444790648491 -3.6133182813362743 1.7289810661224763 -4.875440329630293 -0.43875641854705383 0.0970187304810013 -8.172167357181527 -0.021755878550688015 0.02213577407926649 44.60585769710459 0.04378325790504039 -0.043404941646068056 44.57117085378914 12.459048352682489 -0.027742240736976495 -0.010144409292879774 -0.02254609177794598 -0.01596763164167183 -0.014324228318689755 -0.033364217946407135 -0.005287390525978645 -0.020981575390758084 11.140743851458161 -0.03133056733935303 0.031828120461120255 -0.021239635483693155 -0.02948522119691344 0.01406954687891588 0.014981949614576197 -0.04590467653496576 0.015160859980736026 4.772540756973929 0.004277244475215794 -0.011990290125935964 0.024568771832686496 -0.0223682460552449 -0.019589088487214138 0.0346295113518937 -0.014136161390342553 -0.03813645317452939 -5.590373055798715 0.023501185160287548 0.03856743989412628 -6.749095711728657 -0.0032177865204123996 -0.014750953999111083 -6.746632518570937 0.003969033701531233 0.026303452592125603 -0.00283204564191795 0.010725257964425125 0.01686796593626687 8.043904164632723 3.4895630036288314 -19.220681839434498 -0.004265353021682664 10.354138781584105 0.03491448821349671 -5.594580079552147 -15.650886684261065 3.1426895858772887 -0.035170350521797386 0.013533822998194812 -0.023010362431376503 -0.03454132737287581 4.693840112623693 -0.01666871798156186 12.440197729920419 -8.259121099883313 6.877088920873538 0.0452036301225436 46.36974412725301 0.004426426154858945 -4.364471493805041 -14.739517980623043 -3.8851698196200823 0.03574631784430201 0.04293898886829431 0.017781332066797034 -0.04495981917894098 -10.737066826470524 0.025761564678642664 
0.04385744078722414 -0.03766331332861534 0.030415344596591093 0.04761526145316026 -0.006564496292079815 0.012785038399316308 -2.823177777985923 -0.05192983827863596 -0.8207066402117956 -0.905473521883066 3.6066952551267573 0.38634888758066493 -1.5249247212326997 -2.6158768537461827 -0.7728491390827752 0.029492996364059058 -0.17471210667506742 -0.7850743579579232 1.2701974481326168 15.341816964347686 -3.0097000397488576 0.4329294819379451 0.8426338741546721 -8.325980788305795 1.4447767475395863 -14.074878975879807 -0.68244757964073 -9.965358049271458 3.1600297517328455 -15.258749550881193 69.58948881101847 -23.88291100336007 29.843327298737982 35.29415675924618 6.524399148357098 99.17564405329543 15.719024257051643 -0.6138182649494062 -0.932411188433412 4.531026458474183 -0.15677843726971002 -1.5636958147302553 -0.04715454738594357 0.016238051591548775 -56.23632838765216 0.04818878925895345 0.0018541299068948254 -56.20573197249366 -38.775405889710214 0.012373535657822989 -0.015294044412496786 0.018059395748856264 0.011918585875664446 0.022489909281802018 0.03974743104405897 0.02314649458401043 0.046730523110455696 -36.73773029868482 -0.022197214979122637 -0.017238874777234164 0.04632684607952038 0.02727372978821341 0.01773817151232171 0.01648424292992971 0.04519626019691028 0.0009189962689065477 -19.777496788114256 0.013584708025849277 0.015475041917056905 0.049331960742985806 -0.04980046712858068 0.04393017710786749 0.00301430078616426 -0.019247899403420397 -0.010366454442788602 24.059105270361755 -0.010188291297754464 -0.03774655734315417 28.86744159837653 -0.011836165598178525 0.029501182257652428 28.899900535116558 0.04075223312134002 -0.0324986925928789 7.615136904176941 1.867387506727419 12.678303633860477 -69.7148544064928 8.933812102179985 -15.438916356861125 -39.16827627561996 8.823563932406081 -102.48529027830041 -1.4406120421923716 2.4429927582911937 -5.732501845139363 -0.47654739996568635 0.06953373312656229 -8.142014563233941 0.02740251259390112 -0.0008220274336650002 44.61222814602232 -0.004837349574498394 -0.022917096548920896 44.5667977366074 12.433615478475488 -0.02869690980424608 0.025465209739376795 0.008994740608905292 -0.022176225561367915 0.010585298242991197 -0.019213223521960105 -0.0410590096492028 -0.033382526358575984 11.122199591263438 0.036896721856052424 0.018021119791853755 -0.0006613401124159488 -0.02780171241243082 0.011023676137151175 0.01945139927193783 -0.011418317035100968 -0.009666214195280489 4.763697934396459 0.013499538697636737 0.02939375779736327 0.021423471618366767 0.0017372880352761976 0.024774572835764962 0.003382022835488347 0.02132666028891134 0.00777838557971407 -5.5748709994290735 -0.005405631363772554 -0.038977147712811626 -6.722934039833206 0.0013495419592521967 -0.010126088362973976 -6.734772137249112 -0.001807506712433203 -0.02555676739909346 -0.015373340213788878 0.005982325341991875 -0.017030609299252535 8.042009834626995 3.488019040957101 -19.21868319653672 -0.031502049822626735 10.411206898990535 0.008556131831953142 -5.664549668473263 -15.688163853261994 3.215123081616285 0.009990533388433578 -0.008588534262223998 0.025422884050788484 0.0009236296004793721 4.692339127160249 -0.009802998275577724 12.46576082372438 -8.20441852203396 6.900416818600013 -0.0172011655187413 46.41373800812514 0.034246456912483604 -4.287200475850957 -14.703279622672225 -3.7891241478222955 -0.03230128343341279 0.0029688829527350887 -0.010301579601019913 0.017307651289991982 -10.731729131595777 -0.021160061213124286 
-0.04006032132990286 -0.0013358965792494581 -0.0310239981947113 0.004441686196234641 -0.01020980562202296 0.015369853247633895 -3.0398365571334374 -0.14783235694823357 -0.7476384467060718 -0.8867572748419601 3.5894157630810324 0.3432303643090403 -1.541091420260159 -2.664344240971825 -0.6111479934949127 -0.0005115696695682376 -0.20615414622001837 -0.7749574220140844 1.338842282367326 15.607690198149466 -2.8693221426509643 0.3509506782302638 0.9143825334123162 -8.405263125377013 1.477093708568619 -13.92106460449551 -0.6821733234970896 -10.483097523359023 3.240069133597195 -15.115560267970906 67.38494437723712 -25.062953057846688 34.096070172039006 32.12612509316577 5.0436389874939955 99.94910408723723 14.935453039419352 -0.5491818661471256 -0.4415285676794901 4.514473006645901 -0.16003835991080076 -1.586856915985107 0.0334664315659015 0.04246457416433512 -56.26197021244848 -0.009158435677892984 -0.024893888995003978 -56.253378599658184 -38.804297882022 -0.036125693164072034 0.02154008594161639 -0.008626088793765014 -0.027444661057570773 -0.03643774039863013 -0.008885812358642812 0.0202317560600742 -0.01395541009391705 -36.66487852464976 0.04322266062069874 0.027906348242321563 0.036034680775151845 0.04950954075165907 -0.017180920221139498 -0.010451693937902554 -0.026107243830990473 0.02308918297354509 -19.747446954378788 -0.012054072551435093 0.02711928655163699 -0.013727807440006023 -0.04580423584895227 0.03652063592278358 -0.048206348621555865 0.035985641079989104 0.008173736662102643 24.036890911821537 0.01831363769057664 -0.0384669415634793 28.87292644728751 -0.013649389975703701 -0.0401431662251401 28.872227494030675 0.02292367906236106 0.02767657396110442 7.851742990472817 1.9460946754029584 12.671354029091544 -68.40187315198972 9.188789481741404 -17.021355800151355 -32.55182315515388 5.690626165992219 -101.40049826031978 0.6452812011813163 2.811302857769323 -6.301668164657957 -0.5148156088402694 0.046234550992491685 -8.14686700930831 0.03410910244659576 0.009867278575014984 44.57544119800065 -0.04730843831248045 0.0023263000690213636 44.56803962308554 12.449957896606879 0.007215928327983906 -0.011231837193541993 -0.011862792303896703 0.043020459283589295 0.0272539125376835 -0.019402411596853967 -0.004561421402534483 0.014699054924910797 11.093129798262007 -0.03064501408677967 -0.045727703414883226 -0.04557554418606305 -0.018107968001118996 0.04066214646567344 0.004573513109798122 0.02882153694502559 -0.01899686737995717 4.812121897672356 0.00986542896905411 0.045623246292464587 -0.01054017879901616 0.0011018039424606006 0.045890519738861615 0.03805161799260315 0.011932922466769169 0.0018089339652022727 -5.604405047754075 0.013621907520244789 -0.03961033615844298 -6.685361050958577 0.04902155358743183 0.006315996509952718 -6.727257585600406 -0.03034084762838008 0.019269882867057 -0.04388229346062386 -0.0018259796246145076 -0.0449495603913388 8.038693137219624 3.5307301095401695 -19.220712475251148 0.002481231586429542 10.411721959742898 0.004830028144384492 -5.6060437147421895 -15.631022977597063 3.2197299585674677 0.023876398451572103 0.002090302937773666 0.01434195906240911 0.03823850301675153 4.683078373858029 0.03373386895740957 12.425122870803298 -8.21826427368311 6.869555140293408 -0.03370658795392044 46.35674772460044 -0.03735036896475454 -4.288291057818506 -14.787648348939419 -3.8205318054179522 -0.03855087727875405 0.03747046860829024 -0.03128362247959341 0.00499210324060558 -10.746659459606365 0.041053881852761015 
